<svg width="1448" height="1032" viewBox="0 0 1448 1032" fill="none" xmlns="http://www.w3.org/2000/svg">
<g style="mix-blend-mode:darken" clip-path="url(#clip0_2206_22)" filter="url(#filter0_d_2206_22)">
<rect width="1440" height="1024" transform="translate(4)" fill="white"/>
<rect width="1440" height="1024" transform="translate(4)" fill="#020B47" fill-opacity="0.56"/>
<path d="M1446.19 33.9967C1445.17 2.6525 1420.32 -22.4997 1389 -24.0623L414.01 -72.7034C370.7 -74.864 343.935 -120.747 363.792 -159.298C425.969 -280.004 516.016 -448.094 322.015 -21.2928C57.0151 561.707 1183.77 777.863 1501.24 780.5C1468.73 651.942 1451.35 193.612 1446.19 33.9967Z" fill="#A16AE8" fill-opacity="0.56"/>
<path d="M1501.24 780.5C1183.77 777.863 57.0151 561.707 322.015 -21.2928C516.016 -448.094 425.969 -280.004 363.792 -159.298C343.935 -120.747 370.7 -74.864 414.01 -72.7034L1389 -24.0623C1420.32 -22.4997 1445.17 2.6525 1446.19 33.9967C1451.35 193.612 1468.73 651.942 1501.24 780.5ZM1501.24 780.5C1521.36 793.944 1533.27 835.391 1527 842C1518.9 850.535 1508 807.236 1501.24 780.5Z" stroke="#020B47" stroke-opacity="0.6"/>
<path d="M827.109 -88.4354C770.731 -72.898 775.789 1.55516 831.739 18.5698C1257.32 147.99 1384.79 361.475 1442.76 776.801C1449.49 824.996 1489.34 833.359 1500.75 786.053C1523.46 691.867 1542.67 518.812 1523 207.5C1496.62 -209.957 1074.94 -156.737 827.109 -88.4354Z" fill="#A16AE8" fill-opacity="0.56" stroke="#111959" stroke-opacity="0.8"/>
<path fill-rule="evenodd" clip-rule="evenodd" d="M776.994 1051.5H7V1051.5C7 1074.05 25.9232 1091.98 48.4399 1090.77L776.994 1051.5Z" fill="#63DCDC" fill-opacity="0.34"/>
<path d="M196.108 34.7931C206.474 14.9481 206.679 -8.98972 195.011 -28.0979L118.208 -153.877C86.6223 -205.604 7 -183.216 7 -122.608V307.5C160.831 425.08 239 590 355.5 665.5C138.093 510.338 78.3982 260.16 196.108 34.7931Z" fill="#717698"/>
<path d="M776.994 1051.5L1268.81 1026C976 1124.5 563 842 355.5 665.5C239 590 160.831 425.08 7 307.5V1051.5H776.994Z" fill="#A1A9FE" fill-opacity="0.65"/>
<path d="M1279.41 1026C1284.78 1026 1290.14 1026.71 1295.31 1028.17C1319.9 1035.1 1315.89 1035.14 1268.81 1026L776.994 1051.5H1441.47C1475.58 1051.5 1502.83 1023.1 1501.42 989.024L1494.96 832.626C1493.42 795.292 1458.54 768.428 1421.63 774.229C1019.33 837.453 436.629 734.508 355.5 665.5C563 842 976 1124.5 1268.81 1026H1279.41Z" fill="#717698"/>
<path d="M1268.81 1026C1315.89 1035.14 1319.9 1035.1 1295.31 1028.17C1290.14 1026.71 1284.78 1026 1279.41 1026H1268.81ZM1268.81 1026L776.994 1051.5M1268.81 1026C976 1124.5 563 842 355.5 665.5M7 307.5V-122.608C7 -183.216 86.6223 -205.604 118.208 -153.877L195.011 -28.0979C206.679 -8.98972 206.474 14.9481 196.108 34.7931C78.3982 260.16 138.093 510.338 355.5 665.5M7 307.5L-40.5122 1000.62C-42.3986 1028.14 -20.5839 1051.5 7 1051.5V1051.5M7 307.5C160.831 425.08 239 590 355.5 665.5M7 307.5V1051.5M776.994 1051.5H1441.47C1475.58 1051.5 1502.83 1023.1 1501.42 989.024L1494.96 832.626C1493.42 795.292 1458.54 768.428 1421.63 774.229C1019.33 837.453 436.629 734.508 355.5 665.5M776.994 1051.5L48.4399 1090.77C25.9232 1091.98 7 1074.05 7 1051.5V1051.5M776.994 1051.5H7" stroke="#252D61" stroke-opacity="0.8"/>
</g>
<defs>
<filter id="filter0_d_2206_22" x="0" y="0" width="1448" height="1032" filterUnits="userSpaceOnUse" color-interpolation-filters="sRGB">
<feFlood flood-opacity="0" result="BackgroundImageFix"/>
<feColorMatrix in="SourceAlpha" type="matrix" values="0 0 0 0 0 0 0 0 0 0 0 0 0 0 0 0 0 0 127 0" result="hardAlpha"/>
<feOffset dy="4"/>
<feGaussianBlur stdDeviation="2"/>
<feComposite in2="hardAlpha" operator="out"/>
<feColorMatrix type="matrix" values="0 0 0 0 0 0 0 0 0 0 0 0 0 0 0 0 0 0 0.25 0"/>
<feBlend mode="normal" in2="BackgroundImageFix" result="effect1_dropShadow_2206_22"/>
<feBlend mode="normal" in="SourceGraphic" in2="effect1_dropShadow_2206_22" result="shape"/>
</filter>
<clipPath id="clip0_2206_22">
<rect width="1440" height="1024" fill="white" transform="translate(4)"/>
</clipPath>
</defs>
</svg>
